<mxfile host="app.diagrams.net" modified="2024-04-05T09:56:10.221Z" agent="Mozilla/5.0 (Macintosh; Intel Mac OS X 10_15_7) AppleWebKit/537.36 (KHTML, like Gecko) Chrome/120.0.0.0 YaBrowser/24.1.0.0 Safari/537.36" version="24.0.7" etag="4lipo7MkfcclX077qQf_" type="github">
  <diagram name="Страница — 1" id="r2gQz93WQN-n37bH_nDg">
    <mxGraphModel>
      <root>
        <mxCell id="0" />
        <mxCell id="1" parent="0" />
      </root>
    </mxGraphModel>
  </diagram>
</mxfile>
